<?xml version="1.0" standalone="no"?>
<!DOCTYPE svg PUBLIC "-//W3C//DTD SVG 20010904//EN"
 "http://www.w3.org/TR/2001/REC-SVG-20010904/DTD/svg10.dtd">
<svg version="1.0" xmlns="http://www.w3.org/2000/svg"
 width="555.000000pt" height="91.000000pt" viewBox="0 0 555.000000 91.000000"
 preserveAspectRatio="xMidYMid meet">

<g transform="translate(0.000000,91.000000) scale(0.100000,-0.100000)"
fill="#000000" stroke="none">
<path d="M282 822 c-119 -43 -180 -132 -189 -274 -8 -121 12 -185 80 -253 44
-43 63 -54 119 -70 151 -41 338 20 338 109 0 53 -41 59 -105 14 -78 -55 -205
-51 -277 10 -42 36 -58 79 -58 159 1 156 106 249 239 213 49 -13 91 -49 91
-78 0 -20 29 -52 48 -52 7 0 21 9 32 20 16 16 20 33 20 94 0 54 -4 79 -16 90
-18 18 -55 21 -70 6 -7 -7 -22 -6 -47 5 -61 25 -145 28 -205 7z"/>
<path d="M961 801 c-8 -13 -7 -22 2 -29 9 -8 12 -3 12 19 0 34 -1 35 -14 10z"/>
<path d="M2330 709 c0 -121 8 -149 45 -149 41 0 55 25 55 96 l0 64 55 0 55 0
0 -200 0 -200 -54 0 c-61 0 -79 -14 -74 -56 4 -39 41 -46 206 -42 119 3 135 5
148 22 33 46 4 76 -72 76 l-54 0 0 200 0 200 60 0 60 0 0 -68 c0 -40 5 -73 12
-80 16 -16 53 -15 66 1 6 7 12 65 14 130 l3 117 -262 0 -263 0 0 -111z"/>
<path d="M1030 723 c0 -14 19 -38 25 -32 8 8 -5 39 -16 39 -5 0 -9 -3 -9 -7z"/>
<path d="M1201 696 c-6 -7 -10 -33 -9 -57 1 -24 -2 -52 -7 -63 -6 -14 -5 -18
6 -14 9 3 16 26 19 68 4 51 9 65 25 71 19 7 19 8 -1 8 -12 1 -27 -5 -33 -13z"/>
<path d="M1330 681 c-13 -25 -4 -48 21 -56 18 -6 19 -18 19 -166 0 -133 -2
-159 -15 -159 -8 0 -20 -10 -26 -22 -10 -18 -8 -24 11 -40 18 -14 40 -18 116
-18 136 0 187 14 239 64 48 46 65 92 65 176 -1 101 -50 187 -124 221 -33 15
-66 19 -168 19 -116 0 -128 -2 -138 -19z m280 -76 c43 -22 70 -82 70 -152 0
-106 -52 -153 -170 -153 l-60 0 0 160 0 160 65 0 c40 0 78 -6 95 -15z"/>
<path d="M1820 685 c-18 -22 -2 -55 31 -62 l29 -5 0 -159 0 -159 -24 0 c-49 0
-60 -61 -13 -74 12 -3 109 -6 215 -6 l192 0 0 71 c0 77 -11 109 -38 109 -28 0
-42 -21 -42 -62 l0 -38 -105 0 -105 0 0 60 0 60 34 0 c27 0 35 -5 40 -24 7
-29 31 -40 57 -26 16 9 19 22 19 85 0 88 -5 105 -34 105 -27 0 -46 -18 -46
-42 0 -14 -8 -18 -35 -18 l-35 0 0 60 0 60 95 0 95 0 0 -33 c0 -38 15 -57 46
-57 28 0 34 17 34 101 l0 69 -199 0 c-161 0 -201 -3 -211 -15z"/>
<path d="M2973 693 c-20 -7 -15 -51 6 -63 11 -5 33 -10 50 -10 17 0 31 -3 31
-6 0 -3 -28 -75 -62 -160 -45 -113 -67 -154 -79 -154 -43 0 -49 -62 -6 -74 28
-7 126 -7 154 0 47 13 36 74 -13 74 -24 0 -30 15 -16 37 5 7 43 12 107 14 89
2 100 0 106 -17 12 -30 11 -33 -23 -36 -28 -2 -34 -8 -36 -30 -3 -22 2 -30 23
-38 38 -14 148 -12 169 3 26 19 17 60 -13 67 -21 5 -35 33 -104 203 l-79 197
-102 -1 c-55 0 -107 -3 -113 -6z m202 -173 c15 -36 29 -71 32 -77 4 -10 -12
-13 -61 -13 -36 0 -66 4 -66 9 0 5 7 25 15 45 8 20 22 52 30 73 8 20 17 34 19
32 2 -2 16 -33 31 -69z"/>
<path d="M3421 686 c-19 -23 -4 -56 30 -63 l29 -5 0 -157 c0 -152 -1 -156 -22
-166 -34 -15 -36 -53 -3 -65 34 -13 126 -13 160 0 21 8 26 16 23 38 -3 23 -8
27 -40 30 l-38 3 0 122 c0 69 4 117 9 112 4 -6 52 -79 106 -162 l97 -153 39 0
39 0 0 199 c0 189 1 200 19 206 25 8 36 42 20 61 -9 11 -32 14 -103 12 -88 -3
-91 -4 -94 -27 -4 -29 20 -51 55 -51 23 0 23 -1 23 -122 0 -67 -2 -119 -5
-116 -3 3 -50 75 -103 159 l-98 154 -66 3 c-48 2 -68 -1 -77 -12z"/>
<path d="M3940 607 c0 -96 8 -117 42 -117 24 0 38 30 38 84 l0 46 45 0 45 0 0
-160 0 -160 -43 0 c-46 0 -67 -13 -67 -42 0 -28 41 -38 148 -38 115 0 139 6
147 32 10 30 -13 48 -61 48 l-44 0 0 160 0 160 45 0 45 0 0 -53 c0 -55 12 -77
42 -77 28 0 38 33 38 124 l0 86 -210 0 -210 0 0 -93z"/>
<path d="M4423 693 c-7 -2 -13 -16 -13 -30 0 -18 8 -28 30 -36 l30 -11 0 -158
0 -157 -27 -3 c-22 -2 -29 -9 -31 -30 -4 -36 25 -48 118 -48 52 0 73 4 91 19
33 27 16 55 -35 59 l-36 3 0 55 0 54 45 0 c53 0 90 -29 162 -126 47 -65 60
-71 110 -58 43 12 37 74 -7 74 -10 0 -25 12 -35 26 -9 14 -32 43 -51 64 l-34
38 40 40 c36 36 40 44 40 90 0 43 -5 57 -31 86 -17 20 -47 40 -67 46 -37 10
-276 13 -299 3z m287 -83 c30 -16 43 -46 30 -70 -17 -32 -64 -50 -130 -50
l-60 0 0 65 0 65 71 0 c39 0 79 -5 89 -10z"/>
<path d="M5011 681 c-21 -38 -1 -56 71 -63 l26 -3 -62 -155 c-53 -132 -65
-155 -86 -160 -18 -4 -26 -14 -28 -33 -4 -34 25 -47 103 -47 78 0 107 13 103
48 -2 23 -8 28 -36 30 -25 3 -32 7 -28 19 3 8 6 19 6 24 0 5 47 9 105 9 100 0
106 -1 114 -22 7 -20 5 -23 -20 -26 -17 -2 -34 -12 -40 -24 -19 -35 19 -58 95
-58 78 0 104 7 111 32 8 22 -10 48 -34 48 -12 0 -38 52 -97 198 l-80 197 -106
3 c-98 2 -108 1 -117 -17z m213 -170 c14 -36 26 -68 26 -73 0 -4 -30 -8 -66
-8 -36 0 -64 3 -62 8 2 4 16 40 32 80 16 40 33 69 37 65 4 -4 19 -37 33 -72z"/>
<path d="M885 671 c-42 -26 -71 -60 -90 -105 l-16 -38 -22 30 c-12 17 -28 39
-34 49 -8 11 -7 2 2 -22 9 -22 24 -47 35 -57 14 -11 20 -29 20 -55 0 -22 11
-56 25 -80 l24 -43 -35 0 c-19 0 -51 7 -71 15 -45 19 -54 13 -17 -12 18 -12
48 -18 85 -19 35 0 67 -7 82 -17 14 -9 46 -21 71 -28 25 -6 46 -14 46 -18 0
-16 -64 -67 -103 -83 -31 -12 -36 -17 -19 -17 38 -1 88 25 118 63 25 31 30 34
44 21 15 -14 111 -38 118 -30 11 11 -13 23 -53 27 -25 3 -52 11 -60 18 -14 12
-11 15 21 26 21 7 51 27 68 44 l31 31 -55 -30 c-101 -56 -206 -36 -266 50 -66
95 -25 222 91 282 24 13 26 16 10 17 -11 0 -33 -8 -50 -19z"/>
<path d="M1283 488 c21 -34 21 -38 -1 -38 -10 0 -31 -13 -47 -30 -16 -17 -39
-30 -53 -30 -23 0 -23 -1 -17 -62 5 -45 2 -76 -9 -108 l-16 -45 20 23 c26 31
35 83 22 132 -9 36 -8 40 9 40 11 0 35 16 55 35 39 39 46 41 64 20 7 -9 15
-14 17 -11 8 7 -24 71 -43 86 -18 15 -18 14 -1 -12z"/>
<path d="M840 279 c0 -8 11 -26 25 -39 32 -30 32 -14 0 25 -16 20 -24 25 -25
14z"/>
</g>
</svg>
